<svg xmlns="http://www.w3.org/2000/svg" xmlns:xlink="http://www.w3.org/1999/xlink" width="136" height="135">
	<path fill="#5763F4" d="M61.6064 2.88419C73.0273 2.27195 80.7115 2.82457 91.6481 6.32327C94.7366 7.31132 97.8397 8.33407 100.655 9.96832C104.972 12.4749 108.916 15.91 112.785 19.0609C120.973 25.7286 128.895 38.6568 132.069 48.8684C133.008 51.8888 133.513 55.0773 133.829 58.2183C134.751 67.3813 134.43 81.5381 131.284 90.1528C130.052 93.5277 128.13 96.6947 126.416 99.8415C124.472 103.409 122.515 106.976 119.928 110.131C117.931 112.567 115.469 114.671 113.181 116.834C111.345 118.569 109.602 120.418 107.612 121.979C97.7848 129.684 86.2113 132.4 74.0848 133.606L70.0151 134.077C66.8474 134.182 63.6668 133.687 60.5276 133.316C45.0183 131.484 34.5699 126.415 23.2013 115.783C20.9436 113.672 18.7119 111.534 16.7815 109.112C9.49748 99.9701 3.23599 85.8639 2.84754 74.113C2.57351 65.8235 2.51445 54.8769 5.56102 47.0842C6.54524 44.5668 8.15455 42.2356 9.29311 39.7686C12.2669 33.3251 15.0976 28.3039 20.0342 23.0478C24.8205 17.9516 32.7761 11.7716 39.1317 8.80271C43.0501 6.97229 47.3599 5.71362 51.5472 4.63599C54.8158 3.7948 58.2222 2.99225 61.6064 2.88419Z"/>
	<path fill="#FEFEFE" d="M56.5751 39.0567L57.6371 39.1158L59.3349 43.0152C62.2065 43.0836 65.1325 42.6327 68.0133 42.5535C71.3203 42.4626 74.6614 42.7922 77.9583 43.0301L78.5796 38.8901C83.3384 39.1505 92.1116 41.369 95.6578 44.6695C101.573 50.1749 105.879 66.1944 106.73 73.8754C107.252 78.5899 107.022 83.3255 107.168 88.0572C104.097 89.3644 101.239 91.5277 98.2668 93.0828C94.7857 94.9042 90.9087 96.241 87.2593 97.7074L82.993 90.7766L85.7358 89.6728C86.8959 89.1663 88.1932 88.6228 88.6785 87.3976L88.3022 87.1744L82.9472 88.4841C75.8856 90.6963 68.1834 91.2982 60.8713 90.1582C58.4463 89.7801 49.4084 86.4917 47.9974 87.0873L47.9018 87.4285C49.1919 89.4033 51.9436 89.9795 54.1 90.5002L49.9287 97.741C46.1852 95.816 42.0927 94.5157 38.3141 92.6213C35.4586 91.1898 32.9183 89.0614 29.945 87.8915C29.8994 75.0908 30.6438 65.0964 36.2163 53.2872C37.1746 51.2563 38.0899 49.1071 39.2846 47.2024C42.8405 41.5331 50.5396 40.4186 56.5751 39.0567Z"/>
	<path fill="#5763F4" d="M54.5483 63.5864C55.9509 63.4879 57.3616 63.764 58.6343 64.3623C60.2549 65.1241 61.4276 66.4745 62.0257 68.1542C62.7175 70.0968 62.7109 72.4216 61.8155 74.2985C60.7943 76.4394 58.8793 77.9772 56.6771 78.7711C55.2968 78.8851 53.9637 78.6689 52.7649 77.9547C50.9091 76.849 49.5609 74.9534 49.0488 72.8603C48.5447 70.8004 48.8739 68.4841 49.9786 66.6675C51.068 64.8762 52.5653 64.0641 54.5483 63.5864Z"/>
	<path fill="#5763F4" d="M80.7385 63.5699L83.9123 64.0976C85.624 64.7119 86.8889 65.8082 87.6568 67.4704C88.5361 69.3739 88.6708 71.7882 87.9214 73.7542C86.977 76.2321 85.0635 77.6828 82.7238 78.7426C81.0665 78.936 79.4388 78.5767 78.0588 77.6342C76.3477 76.4656 75.1966 74.5742 74.8358 72.5428C74.4584 70.4179 74.8699 68.0602 76.1212 66.2789C77.3172 64.5763 78.7475 63.9281 80.7385 63.5699Z"/>
</svg>
